<svg height="438pt" viewBox="-32 0 438 438" width="438pt" xmlns="http://www.w3.org/2000/svg"><path d="m327.257812 0h-263.199218c-25.769532.0273438-46.652344 20.914062-46.679688 46.683594v24.546875h-7.378906c-5.523438 0-10 4.476562-10 10 0 5.523437 4.476562 10 10 10h7.378906v51.4375h-7.378906c-5.523438 0-10 4.476562-10 10 0 5.523437 4.476562 10 10 10h7.378906v46.332031h-7.378906c-5.523438 0-10 4.476562-10 10s4.476562 10 10 10h7.378906v51.4375h-7.378906c-5.523438 0-10 4.476562-10 10 0 5.519531 4.476562 10 10 10h7.378906v46.332031h-7.378906c-5.523438 0-10 4.476563-10 10 0 5.523438 4.476562 10 10 10h7.378906v24.550781c.027344 25.769532 20.910156 46.652344 46.679688 46.679688h263.203125c25.769531-.027344 46.652343-20.910156 46.679687-46.683594v-344.632812c-.027344-25.773438-20.910156-46.6562502-46.683594-46.683594zm-29.648437 356.769531h-197.761719c-5.523437 0-10-4.476562-10-10 0-5.523437 4.476563-10 10-10h197.761719c5.519531 0 10 4.476563 10 10 0 5.523438-4.480469 10-10 10zm0-55.023437h-197.761719c-5.523437 0-10-4.476563-10-10 0-5.523438 4.476563-10 10-10h197.761719c5.519531 0 10 4.476562 10 10 0 5.523437-4.480469 10-10 10zm10-83.640625c0 5.523437-4.480469 10-10 10h-197.761719c-5.523437 0-10-4.476563-10-10v-126.875c0-5.523438 4.476563-10 10-10h197.761719c5.519531 0 10 4.476562 10 10zm0 0"/><path d="m109.847656 101.230469h177.761719v106.875h-177.761719zm0 0"/></svg>