<svg height="446pt" viewBox="-28 0 446 446.312" width="446pt" xmlns="http://www.w3.org/2000/svg"><path d="m268.96875 150.601562-69.777344-65.960937v45.960937c.011719 11.039063 8.960938 19.988282 20 20zm0 0"/><path d="m287.238281 50.988281v-50.988281h-154.71875c-16.5625.0195312-29.984375 13.4375-30 30v23.929688h89.320313c2.554687 0 5.011718.976562 6.871094 2.730468l99.714843 94.265625c1.996094 1.886719 3.128907 4.515625 3.128907 7.265625v214.195313h58.046874c16.5625-.019531 29.980469-13.441407 30-30v-251.402344h-62.359374c-22.082032-.023437-39.976563-17.917969-40.003907-39.996094zm0 0"/><path d="m327.238281 70.988281h43.351563l-63.351563-58.777343v38.777343c.015625 11.039063 8.960938 19.984375 20 20zm0 0"/><path d="m179.191406 130.601562v-56.675781h-149.035156c-16.5625.019531-29.980469 13.441407-30 30v312.386719c.019531 16.558594 13.4375 29.980469 30 30h221.398438c16.5625-.019531 29.984374-13.441406 30-30v-245.710938h-62.363282c-22.082031-.023437-39.972656-17.917968-40-40zm0 0"/></svg>