<svg height="445pt" viewBox="0 -32 445.455 445" width="445pt" xmlns="http://www.w3.org/2000/svg"><path d="m220.074219 175.6875c-18.742188 0-33.9375 15.195312-33.9375 33.941406 0 18.742188 15.195312 33.9375 33.9375 33.9375 18.746093 0 33.941406-15.195312 33.941406-33.941406-.023437-18.734375-15.207031-33.917969-33.941406-33.9375zm0 0"/><path d="m220.074219 107.726562c-56.277344 0-101.898438 45.625-101.898438 101.902344s45.621094 101.898438 101.898438 101.898438c56.277343 0 101.902343-45.621094 101.902343-101.898438-.066406-56.253906-45.648437-101.839844-101.902343-101.902344zm0 155.839844c-29.789063 0-53.9375-24.148437-53.9375-53.9375 0-29.792968 24.148437-53.941406 53.9375-53.941406 29.792969 0 53.941406 24.148438 53.941406 53.941406-.035156 29.773438-24.164063 53.90625-53.941406 53.9375zm0 0"/><path d="m395.453125 53.863281h-72.347656l-11.070313-24.335937c-8.136718-17.824219-25.914062-29.269532-45.507812-29.300782h-92.898438c-19.597656.027344-37.378906 11.476563-45.515625 29.300782l-11.066406 24.335937h-67.046875c-27.601562.03125-49.96875 22.398438-50 50v226.363281c.03125 27.601563 22.398438 49.96875 50 50h345.453125c27.601563-.03125 49.96875-22.398437 50-50v-226.363281c-.03125-27.601562-22.398437-49.96875-50-50zm-175.378906 277.664063c-67.324219 0-121.898438-54.578125-121.898438-121.898438 0-67.324218 54.574219-121.902344 121.898438-121.902344s121.902343 54.578126 121.902343 121.902344c-.078124 67.289063-54.609374 121.820313-121.902343 121.898438zm0 0"/></svg>