<svg height="416pt" viewBox="0 0 416 416.00064" width="416pt" xmlns="http://www.w3.org/2000/svg"><path d="m208.457031 67.148438c-31.652343-.003907-57.3125 25.65625-57.3125 57.308593 0 31.648438 25.660157 57.308594 57.308594 57.308594 31.652344 0 57.308594-25.660156 57.308594-57.308594-.035157-31.636719-25.671875-57.273437-57.304688-57.308593zm0 0"/><path d="m208 232.464844c-68.035156.074218-123.171875 55.210937-123.25 123.246094v19.730468c73.269531 54.078125 173.234375 54.078125 246.5 0v-19.730468c-.074219-68.035157-55.210938-123.171876-123.25-123.246094zm0 0"/><path d="m208 0c-114.691406 0-208 93.308594-208 208-.0273438 56.988281 23.386719 111.476562 64.75 150.671875v-2.960937c0-78.988282 64.261719-143.246094 143.25-143.246094s143.25 64.257812 143.25 143.246094v2.960937c41.363281-39.195313 64.78125-93.683594 64.75-150.671875 0-114.691406-93.308594-208-208-208zm.457031 201.765625c-42.699219 0-77.3125-34.613281-77.3125-77.308594 0-42.699219 34.613281-77.3125 77.308594-77.3125 42.699219 0 77.3125 34.613281 77.308594 77.3125-.050781 42.675781-34.632813 77.257813-77.304688 77.308594zm0 0"/></svg>