<svg height="447pt" viewBox="-70 0 447 447" width="447pt" xmlns="http://www.w3.org/2000/svg"><path d="m88.800781 40c.011719-11.039062 8.957031-19.988281 20-20h88.800781c11.039063.011719 19.984376 8.960938 20 20v22.398438h20v-22.398438c-.027343-22.082031-17.921874-39.9765625-40-40h-88.800781c-22.082031.0234375-39.976562 17.917969-40 40v22.398438h20zm0 0"/><path d="m28.601562 414c0 18.8125 12.898438 33 30 33h189.199219c17.097657 0 30-14.1875 30-33v-255.199219h-249.199219zm174-218.800781c0-5.523438 4.476563-10 10-10 5.519532 0 10 4.476562 10 10v199c0 5.523437-4.480468 10-10 10-5.523437 0-10-4.476563-10-10zm-118.800781 0c0-5.523438 4.476563-10 10-10 5.523438 0 10 4.476562 10 10v199c0 5.523437-4.476562 10-10 10-5.523437 0-10-4.476563-10-10zm0 0"/><path d="m286.398438 72.800781h-266.398438c-11.039062.011719-19.9882812 8.957031-20 20v46h306.398438v-46c-.011719-11.042969-8.957032-19.988281-20-20zm0 0"/></svg>